<svg xmlns="http://www.w3.org/2000/svg" xmlns:xlink="http://www.w3.org/1999/xlink" width="500" zoomAndPan="magnify" viewBox="0 0 375 374.999991" height="500" preserveAspectRatio="xMidYMid meet" version="1.0"><path fill="#ffffff" d="M 232.792969 208.140625 L 283.371094 157.550781 C 284.359375 156.574219 285.296875 155.550781 286.183594 154.484375 C 287.074219 153.417969 287.90625 152.308594 288.691406 151.160156 C 289.472656 150.015625 290.195312 148.832031 290.863281 147.613281 C 291.535156 146.398438 292.140625 145.152344 292.691406 143.875 C 293.238281 142.601562 293.726562 141.300781 294.148438 139.980469 C 294.570312 138.65625 294.929688 137.316406 295.226562 135.960938 C 295.519531 134.601562 295.75 133.234375 295.914062 131.855469 C 296.078125 130.476562 296.171875 129.09375 296.203125 127.703125 C 296.234375 126.316406 296.199219 124.929688 296.09375 123.546875 C 295.992188 122.160156 295.824219 120.785156 295.585938 119.414062 C 295.351562 118.046875 295.050781 116.691406 294.6875 115.351562 C 294.320312 114.011719 293.890625 112.695312 293.398438 111.394531 C 292.90625 110.097656 292.355469 108.824219 291.742188 107.578125 C 291.125 106.335938 290.453125 105.121094 289.722656 103.941406 C 288.992188 102.761719 288.207031 101.617188 287.363281 100.511719 C 286.523438 99.410156 285.632812 98.347656 284.6875 97.328125 C 283.746094 96.308594 282.757812 95.335938 281.71875 94.414062 C 280.683594 93.488281 279.605469 92.617188 278.484375 91.796875 C 277.363281 90.976562 276.207031 90.210938 275.015625 89.5 C 273.820312 88.792969 272.59375 88.144531 271.339844 87.550781 C 270.082031 86.960938 268.800781 86.429688 267.496094 85.960938 C 266.1875 85.496094 264.859375 85.089844 263.515625 84.75 C 262.167969 84.410156 260.808594 84.132812 259.4375 83.925781 C 258.066406 83.714844 256.6875 83.570312 255.300781 83.496094 C 253.914062 83.417969 252.527344 83.40625 251.140625 83.464844 C 249.753906 83.519531 248.371094 83.640625 246.996094 83.832031 C 245.621094 84.019531 244.257812 84.273438 242.90625 84.59375 C 241.554688 84.914062 240.222656 85.300781 238.910156 85.75 C 237.597656 86.195312 236.304688 86.707031 235.042969 87.277344 C 233.777344 87.851562 232.542969 88.484375 231.339844 89.175781 C 230.132812 89.867188 228.964844 90.613281 227.832031 91.417969 C 226.699219 92.21875 225.609375 93.074219 224.558594 93.984375 C 223.507812 93.082031 222.417969 92.230469 221.285156 91.429688 C 220.152344 90.632812 218.984375 89.890625 217.78125 89.203125 C 216.578125 88.519531 215.34375 87.890625 214.082031 87.324219 C 212.816406 86.753906 211.527344 86.25 210.21875 85.804688 C 208.90625 85.359375 207.574219 84.980469 206.226562 84.664062 C 204.875 84.347656 203.515625 84.09375 202.144531 83.910156 C 200.769531 83.722656 199.390625 83.601562 198.007812 83.546875 C 196.625 83.496094 195.238281 83.507812 193.855469 83.585938 C 192.472656 83.664062 191.097656 83.808594 189.726562 84.019531 C 188.359375 84.230469 187.003906 84.507812 185.660156 84.851562 C 184.316406 85.191406 182.992188 85.59375 181.691406 86.0625 C 180.386719 86.53125 179.109375 87.0625 177.855469 87.652344 C 176.601562 88.242188 175.378906 88.894531 174.1875 89.601562 C 172.996094 90.308594 171.84375 91.074219 170.726562 91.890625 C 169.609375 92.710938 168.53125 93.582031 167.5 94.503906 C 166.464844 95.425781 165.476562 96.394531 164.535156 97.410156 C 163.59375 98.429688 162.703125 99.488281 161.863281 100.589844 C 161.027344 101.691406 160.242188 102.832031 159.511719 104.011719 C 158.78125 105.1875 158.109375 106.398438 157.496094 107.640625 C 156.878906 108.882812 156.328125 110.152344 155.835938 111.445312 C 155.34375 112.742188 154.914062 114.058594 154.546875 115.394531 C 154.179688 116.730469 153.878906 118.082031 153.644531 119.445312 C 153.40625 120.8125 153.234375 122.1875 153.132812 123.566406 C 153.027344 124.949219 152.988281 126.332031 153.015625 127.71875 C 153.042969 129.105469 153.136719 130.484375 153.296875 131.863281 C 153.457031 133.238281 153.683594 134.601562 153.976562 135.957031 C 154.265625 137.3125 154.621094 138.652344 155.042969 139.972656 C 155.460938 141.292969 155.945312 142.589844 156.488281 143.863281 C 157.03125 145.136719 157.636719 146.382812 158.300781 147.601562 C 158.964844 148.816406 159.683594 150 160.460938 151.144531 C 161.238281 152.292969 162.066406 153.398438 162.949219 154.46875 C 163.832031 155.535156 164.765625 156.558594 165.746094 157.535156 L 216.324219 208.128906 C 216.867188 208.667969 217.457031 209.148438 218.089844 209.574219 C 218.726562 209.996094 219.398438 210.355469 220.105469 210.644531 C 220.808594 210.9375 221.539062 211.160156 222.285156 211.308594 C 223.035156 211.457031 223.792969 211.53125 224.558594 211.53125 C 225.320312 211.535156 226.078125 211.460938 226.828125 211.3125 C 227.578125 211.164062 228.304688 210.945312 229.011719 210.652344 C 229.71875 210.363281 230.390625 210.007812 231.027344 209.582031 C 231.660156 209.160156 232.25 208.679688 232.792969 208.140625 Z M 182.1875 112.738281 C 182.652344 112.273438 183.136719 111.832031 183.644531 111.414062 C 184.152344 110.996094 184.679688 110.605469 185.222656 110.242188 C 185.769531 109.875 186.332031 109.539062 186.910156 109.226562 C 187.488281 108.917969 188.082031 108.636719 188.6875 108.386719 C 189.296875 108.132812 189.914062 107.910156 190.542969 107.722656 C 191.167969 107.53125 191.804688 107.371094 192.449219 107.242188 C 193.09375 107.113281 193.742188 107.015625 194.394531 106.953125 C 195.050781 106.886719 195.703125 106.855469 196.359375 106.855469 C 197.019531 106.855469 197.671875 106.886719 198.328125 106.953125 C 198.980469 107.015625 199.628906 107.113281 200.273438 107.242188 C 200.917969 107.371094 201.554688 107.53125 202.179688 107.722656 C 202.808594 107.910156 203.425781 108.132812 204.035156 108.386719 C 204.640625 108.636719 205.234375 108.917969 205.8125 109.226562 C 206.390625 109.539062 206.953125 109.875 207.5 110.242188 C 208.042969 110.605469 208.570312 110.996094 209.078125 111.414062 C 209.585938 111.832031 210.070312 112.273438 210.535156 112.738281 L 216.191406 118.371094 C 216.734375 118.929688 217.328125 119.429688 217.96875 119.871094 C 218.613281 120.3125 219.292969 120.683594 220.011719 120.988281 C 220.726562 121.292969 221.46875 121.519531 222.230469 121.675781 C 222.996094 121.832031 223.765625 121.910156 224.546875 121.910156 C 225.324219 121.910156 226.097656 121.832031 226.859375 121.675781 C 227.625 121.519531 228.363281 121.292969 229.082031 120.988281 C 229.800781 120.683594 230.480469 120.3125 231.121094 119.871094 C 231.765625 119.429688 232.359375 118.929688 232.898438 118.371094 L 238.558594 112.738281 C 239.023438 112.273438 239.507812 111.832031 240.015625 111.417969 C 240.523438 111 241.050781 110.609375 241.597656 110.246094 C 242.140625 109.878906 242.703125 109.542969 243.28125 109.234375 C 243.863281 108.925781 244.453125 108.644531 245.0625 108.394531 C 245.667969 108.140625 246.285156 107.921875 246.914062 107.730469 C 247.542969 107.539062 248.175781 107.378906 248.820312 107.25 C 249.464844 107.125 250.113281 107.027344 250.765625 106.964844 C 251.421875 106.898438 252.074219 106.867188 252.730469 106.867188 C 253.386719 106.867188 254.042969 106.898438 254.695312 106.964844 C 255.347656 107.027344 255.996094 107.125 256.640625 107.25 C 257.285156 107.378906 257.921875 107.539062 258.550781 107.730469 C 259.175781 107.921875 259.796875 108.140625 260.402344 108.394531 C 261.007812 108.644531 261.601562 108.925781 262.179688 109.234375 C 262.757812 109.542969 263.320312 109.878906 263.867188 110.246094 C 264.414062 110.609375 264.9375 111 265.445312 111.417969 C 265.953125 111.832031 266.441406 112.273438 266.902344 112.738281 C 267.367188 113.203125 267.808594 113.6875 268.226562 114.195312 C 268.640625 114.703125 269.03125 115.230469 269.398438 115.777344 C 269.761719 116.324219 270.097656 116.886719 270.40625 117.464844 C 270.71875 118.042969 270.996094 118.636719 271.25 119.242188 C 271.5 119.847656 271.722656 120.46875 271.910156 121.09375 C 272.101562 121.722656 272.261719 122.359375 272.390625 123.003906 C 272.515625 123.648438 272.613281 124.296875 272.679688 124.949219 C 272.742188 125.601562 272.773438 126.257812 272.773438 126.914062 C 272.773438 127.570312 272.742188 128.226562 272.679688 128.878906 C 272.613281 129.535156 272.515625 130.183594 272.390625 130.824219 C 272.261719 131.46875 272.101562 132.105469 271.910156 132.734375 C 271.722656 133.363281 271.5 133.980469 271.25 134.585938 C 270.996094 135.195312 270.71875 135.785156 270.40625 136.367188 C 270.097656 136.945312 269.761719 137.507812 269.394531 138.054688 C 269.03125 138.597656 268.640625 139.125 268.226562 139.632812 C 267.808594 140.140625 267.367188 140.625 266.902344 141.089844 L 224.558594 183.417969 L 182.203125 141.078125 C 181.738281 140.613281 181.296875 140.128906 180.878906 139.621094 C 180.460938 139.113281 180.070312 138.589844 179.707031 138.042969 C 179.339844 137.496094 179.003906 136.9375 178.695312 136.355469 C 178.382812 135.777344 178.101562 135.1875 177.851562 134.578125 C 177.601562 133.972656 177.378906 133.355469 177.1875 132.730469 C 176.996094 132.101562 176.835938 131.464844 176.707031 130.820312 C 176.578125 130.175781 176.484375 129.527344 176.417969 128.875 C 176.355469 128.222656 176.320312 127.566406 176.320312 126.910156 C 176.320312 126.253906 176.351562 125.601562 176.417969 124.945312 C 176.480469 124.292969 176.578125 123.644531 176.703125 123 C 176.832031 122.355469 176.992188 121.71875 177.183594 121.09375 C 177.371094 120.464844 177.59375 119.847656 177.84375 119.242188 C 178.09375 118.632812 178.375 118.042969 178.683594 117.460938 C 178.996094 116.882812 179.332031 116.320312 179.695312 115.773438 C 180.0625 115.230469 180.453125 114.703125 180.867188 114.195312 C 181.285156 113.6875 181.722656 113.203125 182.1875 112.738281 Z M 182.1875 112.738281 " fill-opacity="1" fill-rule="evenodd"/><path fill="#ffffff" d="M 362.015625 47.261719 L 151.800781 47.261719 C 151.039062 47.261719 150.28125 47.339844 149.53125 47.488281 C 148.78125 47.636719 148.054688 47.855469 147.347656 48.148438 C 146.640625 48.441406 145.972656 48.800781 145.335938 49.226562 C 144.699219 49.648438 144.113281 50.132812 143.574219 50.671875 C 143.03125 51.214844 142.550781 51.800781 142.125 52.4375 C 141.703125 53.070312 141.34375 53.742188 141.050781 54.449219 C 140.757812 55.15625 140.539062 55.882812 140.386719 56.632812 C 140.238281 57.382812 140.164062 58.140625 140.164062 58.902344 C 140.164062 59.667969 140.238281 60.425781 140.386719 61.175781 C 140.539062 61.925781 140.757812 62.652344 141.050781 63.359375 C 141.34375 64.0625 141.703125 64.734375 142.125 65.371094 C 142.550781 66.003906 143.03125 66.59375 143.574219 67.132812 C 144.113281 67.675781 144.699219 68.15625 145.335938 68.582031 C 145.972656 69.007812 146.640625 69.363281 147.347656 69.65625 C 148.054688 69.949219 148.78125 70.171875 149.53125 70.320312 C 150.28125 70.46875 151.039062 70.542969 151.800781 70.542969 L 347.816406 70.542969 L 317.441406 222.53125 L 126.6875 222.53125 L 93.214844 13.277344 C 93.105469 12.601562 92.9375 11.9375 92.710938 11.289062 C 92.488281 10.640625 92.207031 10.019531 91.867188 9.421875 C 91.53125 8.820312 91.144531 8.257812 90.710938 7.726562 C 90.273438 7.199219 89.792969 6.710938 89.273438 6.265625 C 88.75 5.820312 88.191406 5.421875 87.601562 5.078125 C 87.007812 4.730469 86.390625 4.4375 85.746094 4.199219 C 85.101562 3.960938 84.445312 3.785156 83.769531 3.664062 C 83.09375 3.542969 82.414062 3.480469 81.726562 3.480469 L 11.636719 3.480469 C 10.871094 3.480469 10.117188 3.554688 9.367188 3.703125 C 8.617188 3.851562 7.890625 4.074219 7.183594 4.367188 C 6.476562 4.660156 5.808594 5.015625 5.171875 5.441406 C 4.535156 5.867188 3.949219 6.347656 3.410156 6.890625 C 2.867188 7.429688 2.386719 8.015625 1.960938 8.652344 C 1.535156 9.289062 1.179688 9.960938 0.886719 10.664062 C 0.59375 11.371094 0.371094 12.097656 0.222656 12.847656 C 0.0742188 13.597656 0 14.355469 0 15.121094 C 0 15.882812 0.0742188 16.640625 0.222656 17.390625 C 0.371094 18.140625 0.59375 18.867188 0.886719 19.574219 C 1.179688 20.28125 1.535156 20.953125 1.960938 21.585938 C 2.386719 22.222656 2.867188 22.808594 3.410156 23.351562 C 3.949219 23.890625 4.535156 24.375 5.171875 24.796875 C 5.808594 25.222656 6.476562 25.582031 7.183594 25.875 C 7.890625 26.167969 8.617188 26.386719 9.367188 26.535156 C 10.117188 26.683594 10.871094 26.761719 11.636719 26.761719 L 71.796875 26.761719 L 105.265625 236.011719 C 105.375 236.691406 105.542969 237.355469 105.769531 238.003906 C 105.996094 238.652344 106.277344 239.277344 106.613281 239.875 C 106.949219 240.476562 107.335938 241.039062 107.773438 241.570312 C 108.210938 242.101562 108.691406 242.589844 109.210938 243.035156 C 109.734375 243.480469 110.292969 243.875 110.886719 244.222656 C 111.480469 244.570312 112.097656 244.859375 112.742188 245.097656 C 113.386719 245.335938 114.050781 245.511719 114.726562 245.632812 C 115.402344 245.753906 116.082031 245.8125 116.769531 245.8125 L 326.957031 245.8125 C 327.625 245.8125 328.285156 245.753906 328.945312 245.640625 C 329.601562 245.527344 330.242188 245.359375 330.871094 245.132812 C 331.5 244.910156 332.105469 244.632812 332.6875 244.304688 C 333.265625 243.976562 333.816406 243.601562 334.332031 243.179688 C 334.847656 242.753906 335.324219 242.292969 335.761719 241.785156 C 336.195312 241.28125 336.585938 240.742188 336.929688 240.171875 C 337.273438 239.601562 337.566406 239.003906 337.808594 238.382812 C 338.050781 237.757812 338.234375 237.121094 338.367188 236.46875 L 373.4375 61.226562 C 373.523438 60.804688 373.585938 60.378906 373.625 59.949219 C 373.660156 59.523438 373.675781 59.09375 373.667969 58.664062 C 373.65625 58.230469 373.625 57.804688 373.566406 57.378906 C 373.511719 56.949219 373.429688 56.527344 373.328125 56.109375 C 373.222656 55.691406 373.097656 55.28125 372.949219 54.878906 C 372.796875 54.476562 372.628906 54.082031 372.433594 53.695312 C 372.242188 53.3125 372.027344 52.9375 371.796875 52.578125 C 371.5625 52.214844 371.308594 51.871094 371.035156 51.535156 C 370.761719 51.203125 370.472656 50.886719 370.164062 50.585938 C 369.859375 50.285156 369.535156 50 369.195312 49.738281 C 368.855469 49.472656 368.503906 49.226562 368.136719 49 C 367.773438 48.773438 367.394531 48.570312 367.003906 48.386719 C 366.617188 48.199219 366.21875 48.039062 365.8125 47.898438 C 365.40625 47.757812 364.992188 47.640625 364.574219 47.546875 C 364.152344 47.453125 363.730469 47.382812 363.300781 47.335938 C 362.875 47.285156 362.445312 47.261719 362.015625 47.261719 Z M 362.015625 47.261719 " fill-opacity="1" fill-rule="evenodd"/><path fill="#ffffff" d="M 153.988281 266.339844 C 152.53125 266.339844 151.078125 266.414062 149.628906 266.554688 C 148.179688 266.695312 146.738281 266.910156 145.308594 267.195312 C 143.878906 267.476562 142.46875 267.832031 141.074219 268.253906 C 139.675781 268.675781 138.308594 269.167969 136.960938 269.726562 C 135.613281 270.28125 134.296875 270.90625 133.011719 271.589844 C 131.726562 272.277344 130.476562 273.027344 129.265625 273.835938 C 128.054688 274.644531 126.886719 275.511719 125.757812 276.4375 C 124.632812 277.363281 123.550781 278.339844 122.523438 279.371094 C 121.492188 280.402344 120.511719 281.480469 119.589844 282.605469 C 118.664062 283.734375 117.796875 284.902344 116.988281 286.113281 C 116.175781 287.324219 115.429688 288.574219 114.742188 289.859375 C 114.054688 291.144531 113.429688 292.460938 112.875 293.808594 C 112.316406 295.15625 111.824219 296.527344 111.402344 297.921875 C 110.976562 299.316406 110.625 300.726562 110.339844 302.15625 C 110.054688 303.585938 109.839844 305.027344 109.699219 306.480469 C 109.554688 307.929688 109.484375 309.382812 109.484375 310.839844 C 109.484375 312.300781 109.554688 313.753906 109.699219 315.203125 C 109.839844 316.65625 110.054688 318.09375 110.339844 319.523438 C 110.621094 320.953125 110.976562 322.367188 111.398438 323.761719 C 111.820312 325.15625 112.3125 326.527344 112.871094 327.875 C 113.425781 329.222656 114.050781 330.539062 114.738281 331.824219 C 115.421875 333.109375 116.171875 334.359375 116.980469 335.570312 C 117.792969 336.78125 118.660156 337.953125 119.582031 339.078125 C 120.507812 340.207031 121.484375 341.285156 122.515625 342.316406 C 123.546875 343.347656 124.625 344.324219 125.75 345.25 C 126.878906 346.171875 128.046875 347.039062 129.257812 347.851562 C 130.46875 348.660156 131.71875 349.410156 133.003906 350.097656 C 134.289062 350.785156 135.605469 351.40625 136.953125 351.964844 C 138.296875 352.519531 139.667969 353.011719 141.0625 353.433594 C 142.457031 353.859375 143.871094 354.210938 145.300781 354.496094 C 146.730469 354.78125 148.167969 354.992188 149.621094 355.136719 C 151.070312 355.277344 152.523438 355.351562 153.980469 355.351562 C 155.4375 355.351562 156.890625 355.277344 158.34375 355.136719 C 159.792969 354.992188 161.234375 354.777344 162.664062 354.496094 C 164.089844 354.210938 165.503906 353.855469 166.898438 353.433594 C 168.292969 353.007812 169.664062 352.519531 171.007812 351.960938 C 172.355469 351.402344 173.671875 350.78125 174.957031 350.09375 C 176.242188 349.40625 177.492188 348.65625 178.703125 347.84375 C 179.914062 347.035156 181.082031 346.167969 182.210938 345.242188 C 183.335938 344.316406 184.414062 343.339844 185.445312 342.308594 C 186.476562 341.277344 187.453125 340.199219 188.375 339.070312 C 189.300781 337.945312 190.167969 336.773438 190.976562 335.5625 C 191.785156 334.351562 192.535156 333.101562 193.222656 331.816406 C 193.90625 330.53125 194.53125 329.214844 195.085938 327.867188 C 195.644531 326.519531 196.132812 325.148438 196.558594 323.753906 C 196.980469 322.359375 197.332031 320.945312 197.617188 319.515625 C 197.902344 318.085938 198.113281 316.644531 198.257812 315.195312 C 198.398438 313.746094 198.46875 312.289062 198.46875 310.832031 C 198.46875 309.375 198.398438 307.921875 198.253906 306.472656 C 198.109375 305.023438 197.898438 303.582031 197.613281 302.152344 C 197.328125 300.726562 196.972656 299.3125 196.550781 297.917969 C 196.128906 296.523438 195.636719 295.15625 195.082031 293.808594 C 194.523438 292.460938 193.902344 291.148438 193.214844 289.863281 C 192.527344 288.578125 191.777344 287.328125 190.96875 286.117188 C 190.160156 284.90625 189.292969 283.738281 188.371094 282.613281 C 187.445312 281.484375 186.46875 280.40625 185.4375 279.375 C 184.40625 278.347656 183.332031 277.367188 182.203125 276.445312 C 181.078125 275.519531 179.910156 274.652344 178.699219 273.84375 C 177.488281 273.035156 176.238281 272.285156 174.953125 271.597656 C 173.671875 270.910156 172.355469 270.289062 171.007812 269.730469 C 169.664062 269.175781 168.292969 268.683594 166.902344 268.261719 C 165.507812 267.835938 164.09375 267.484375 162.667969 267.199219 C 161.238281 266.914062 159.800781 266.699219 158.347656 266.558594 C 156.898438 266.414062 155.445312 266.34375 153.988281 266.339844 Z M 153.988281 332.058594 C 153.296875 332.058594 152.601562 332.023438 151.910156 331.957031 C 151.21875 331.886719 150.53125 331.785156 149.851562 331.652344 C 149.167969 331.515625 148.496094 331.347656 147.832031 331.148438 C 147.164062 330.945312 146.511719 330.710938 145.867188 330.445312 C 145.226562 330.179688 144.597656 329.882812 143.984375 329.558594 C 143.371094 329.230469 142.777344 328.875 142.199219 328.488281 C 141.621094 328.101562 141.0625 327.6875 140.527344 327.246094 C 139.988281 326.808594 139.472656 326.339844 138.980469 325.851562 C 138.492188 325.359375 138.023438 324.84375 137.582031 324.308594 C 137.140625 323.769531 136.726562 323.214844 136.339844 322.636719 C 135.953125 322.058594 135.597656 321.460938 135.269531 320.847656 C 134.941406 320.238281 134.644531 319.609375 134.378906 318.96875 C 134.113281 318.324219 133.878906 317.671875 133.675781 317.007812 C 133.472656 316.339844 133.304688 315.667969 133.167969 314.988281 C 133.03125 314.304688 132.929688 313.617188 132.863281 312.925781 C 132.792969 312.234375 132.757812 311.542969 132.757812 310.847656 C 132.757812 310.152344 132.792969 309.457031 132.859375 308.765625 C 132.925781 308.074219 133.027344 307.386719 133.164062 306.703125 C 133.296875 306.023438 133.464844 305.351562 133.667969 304.683594 C 133.867188 304.019531 134.101562 303.363281 134.367188 302.722656 C 134.632812 302.082031 134.929688 301.453125 135.257812 300.839844 C 135.585938 300.226562 135.941406 299.628906 136.328125 299.050781 C 136.710938 298.472656 137.125 297.914062 137.566406 297.378906 C 138.007812 296.839844 138.472656 296.324219 138.964844 295.835938 C 139.453125 295.34375 139.96875 294.875 140.503906 294.433594 C 141.042969 293.992188 141.597656 293.578125 142.175781 293.191406 C 142.753906 292.804688 143.351562 292.449219 143.960938 292.121094 C 144.574219 291.792969 145.203125 291.496094 145.84375 291.230469 C 146.484375 290.960938 147.140625 290.726562 147.804688 290.527344 C 148.46875 290.324219 149.144531 290.15625 149.824219 290.019531 C 150.503906 289.882812 151.191406 289.78125 151.882812 289.710938 C 152.574219 289.644531 153.269531 289.609375 153.964844 289.609375 C 154.660156 289.609375 155.351562 289.640625 156.042969 289.710938 C 156.734375 289.777344 157.421875 289.878906 158.101562 290.011719 C 158.785156 290.148438 159.457031 290.316406 160.125 290.519531 C 160.789062 290.71875 161.441406 290.953125 162.085938 291.21875 C 162.726562 291.484375 163.355469 291.78125 163.96875 292.109375 C 164.582031 292.433594 165.175781 292.792969 165.753906 293.179688 C 166.332031 293.5625 166.890625 293.976562 167.425781 294.417969 C 167.964844 294.859375 168.480469 295.324219 168.972656 295.816406 C 169.464844 296.304688 169.929688 296.820312 170.371094 297.359375 C 170.8125 297.894531 171.226562 298.453125 171.613281 299.03125 C 172 299.609375 172.355469 300.203125 172.683594 300.816406 C 173.011719 301.429688 173.308594 302.054688 173.574219 302.699219 C 173.839844 303.339844 174.074219 303.992188 174.277344 304.660156 C 174.480469 305.324219 174.648438 305.996094 174.785156 306.679688 C 174.921875 307.359375 175.023438 308.046875 175.09375 308.738281 C 175.160156 309.429688 175.195312 310.125 175.195312 310.820312 C 175.195312 311.515625 175.164062 312.207031 175.09375 312.898438 C 175.027344 313.59375 174.925781 314.277344 174.789062 314.960938 C 174.65625 315.644531 174.488281 316.316406 174.285156 316.984375 C 174.085938 317.648438 173.851562 318.300781 173.585938 318.945312 C 173.320312 319.585938 173.023438 320.214844 172.695312 320.828125 C 172.371094 321.441406 172.011719 322.039062 171.628906 322.617188 C 171.242188 323.195312 170.828125 323.753906 170.386719 324.289062 C 169.949219 324.828125 169.480469 325.34375 168.992188 325.835938 C 168.5 326.328125 167.984375 326.792969 167.449219 327.238281 C 166.914062 327.679688 166.355469 328.09375 165.777344 328.480469 C 165.199219 328.867188 164.605469 329.222656 163.992188 329.550781 C 163.378906 329.878906 162.753906 330.179688 162.109375 330.445312 C 161.46875 330.710938 160.816406 330.945312 160.148438 331.148438 C 159.484375 331.351562 158.8125 331.519531 158.128906 331.65625 C 157.449219 331.792969 156.761719 331.898438 156.070312 331.964844 C 155.378906 332.035156 154.683594 332.070312 153.988281 332.070312 Z M 153.988281 332.058594 " fill-opacity="1" fill-rule="evenodd"/><path fill="#ffffff" d="M 285.375 266.339844 C 283.917969 266.34375 282.460938 266.414062 281.011719 266.558594 C 279.5625 266.699219 278.121094 266.914062 276.695312 267.199219 C 275.265625 267.484375 273.851562 267.839844 272.457031 268.261719 C 271.0625 268.683594 269.695312 269.175781 268.347656 269.734375 C 267 270.292969 265.6875 270.914062 264.402344 271.601562 C 263.117188 272.289062 261.867188 273.039062 260.65625 273.847656 C 259.445312 274.660156 258.277344 275.527344 257.152344 276.453125 C 256.023438 277.378906 254.945312 278.355469 253.917969 279.386719 C 252.886719 280.417969 251.910156 281.496094 250.984375 282.621094 C 250.0625 283.75 249.195312 284.917969 248.386719 286.132812 C 247.574219 287.34375 246.828125 288.59375 246.140625 289.878906 C 245.453125 291.164062 244.832031 292.480469 244.277344 293.828125 C 243.71875 295.175781 243.230469 296.542969 242.804688 297.941406 C 242.382812 299.335938 242.03125 300.746094 241.746094 302.175781 C 241.460938 303.605469 241.25 305.046875 241.105469 306.496094 C 240.964844 307.949219 240.894531 309.402344 240.894531 310.859375 C 240.894531 312.316406 240.964844 313.769531 241.109375 315.222656 C 241.253906 316.671875 241.46875 318.113281 241.75 319.542969 C 242.035156 320.972656 242.390625 322.382812 242.8125 323.777344 C 243.238281 325.171875 243.726562 326.542969 244.285156 327.890625 C 244.84375 329.234375 245.464844 330.550781 246.152344 331.835938 C 246.839844 333.121094 247.589844 334.371094 248.398438 335.582031 C 249.210938 336.792969 250.078125 337.964844 251.003906 339.089844 C 251.925781 340.214844 252.90625 341.292969 253.933594 342.324219 C 254.964844 343.355469 256.042969 344.332031 257.171875 345.257812 C 258.296875 346.179688 259.46875 347.046875 260.679688 347.859375 C 261.890625 348.667969 263.140625 349.414062 264.425781 350.101562 C 265.710938 350.789062 267.027344 351.410156 268.371094 351.96875 C 269.71875 352.523438 271.089844 353.015625 272.484375 353.4375 C 273.878906 353.859375 275.289062 354.214844 276.71875 354.496094 C 278.148438 354.78125 279.589844 354.996094 281.039062 355.136719 C 282.488281 355.28125 283.941406 355.351562 285.398438 355.351562 C 286.859375 355.351562 288.3125 355.277344 289.761719 355.136719 C 291.210938 354.992188 292.652344 354.777344 294.082031 354.492188 C 295.507812 354.207031 296.921875 353.855469 298.316406 353.429688 C 299.710938 353.007812 301.078125 352.515625 302.425781 351.957031 C 303.773438 351.398438 305.085938 350.777344 306.371094 350.089844 C 307.65625 349.402344 308.90625 348.652344 310.117188 347.84375 C 311.328125 347.03125 312.496094 346.164062 313.625 345.238281 C 314.75 344.316406 315.828125 343.335938 316.859375 342.304688 C 317.886719 341.273438 318.863281 340.195312 319.789062 339.070312 C 320.714844 337.941406 321.578125 336.773438 322.390625 335.558594 C 323.199219 334.347656 323.945312 333.097656 324.632812 331.8125 C 325.320312 330.527344 325.941406 329.210938 326.5 327.863281 C 327.054688 326.519531 327.546875 325.148438 327.96875 323.753906 C 328.390625 322.355469 328.742188 320.945312 329.027344 319.515625 C 329.3125 318.085938 329.523438 316.644531 329.667969 315.195312 C 329.808594 313.746094 329.878906 312.289062 329.878906 310.832031 C 329.878906 309.375 329.808594 307.921875 329.664062 306.46875 C 329.519531 305.019531 329.308594 303.578125 329.023438 302.152344 C 328.738281 300.722656 328.382812 299.308594 327.960938 297.914062 C 327.535156 296.519531 327.046875 295.148438 326.488281 293.800781 C 325.929688 292.457031 325.308594 291.140625 324.621094 289.855469 C 323.933594 288.570312 323.183594 287.320312 322.375 286.109375 C 321.5625 284.898438 320.695312 283.730469 319.773438 282.601562 C 318.847656 281.476562 317.871094 280.398438 316.839844 279.367188 C 315.808594 278.335938 314.730469 277.359375 313.601562 276.433594 C 312.476562 275.511719 311.308594 274.644531 310.09375 273.835938 C 308.882812 273.023438 307.632812 272.277344 306.347656 271.589844 C 305.0625 270.902344 303.746094 270.28125 302.402344 269.722656 C 301.054688 269.167969 299.683594 268.675781 298.289062 268.253906 C 296.894531 267.832031 295.484375 267.476562 294.054688 267.195312 C 292.625 266.910156 291.183594 266.695312 289.734375 266.554688 C 288.285156 266.414062 286.832031 266.339844 285.375 266.339844 Z M 285.375 332.058594 C 284.679688 332.054688 283.984375 332.023438 283.292969 331.953125 C 282.601562 331.886719 281.917969 331.78125 281.234375 331.648438 C 280.554688 331.511719 279.882812 331.34375 279.214844 331.140625 C 278.550781 330.9375 277.898438 330.703125 277.257812 330.4375 C 276.613281 330.171875 275.988281 329.875 275.375 329.546875 C 274.761719 329.21875 274.167969 328.859375 273.589844 328.472656 C 273.011719 328.089844 272.457031 327.675781 271.917969 327.234375 C 271.382812 326.792969 270.867188 326.324219 270.375 325.835938 C 269.886719 325.34375 269.417969 324.828125 268.980469 324.289062 C 268.539062 323.753906 268.125 323.195312 267.738281 322.617188 C 267.355469 322.039062 266.996094 321.445312 266.671875 320.832031 C 266.34375 320.21875 266.046875 319.589844 265.78125 318.949219 C 265.515625 318.304688 265.28125 317.652344 265.078125 316.988281 C 264.878906 316.324219 264.710938 315.648438 264.574219 314.96875 C 264.4375 314.285156 264.335938 313.597656 264.269531 312.90625 C 264.203125 312.214844 264.167969 311.523438 264.167969 310.828125 C 264.167969 310.132812 264.203125 309.441406 264.269531 308.75 C 264.339844 308.058594 264.441406 307.371094 264.578125 306.6875 C 264.710938 306.007812 264.882812 305.332031 265.082031 304.667969 C 265.285156 304.003906 265.519531 303.351562 265.785156 302.707031 C 266.050781 302.066406 266.347656 301.4375 266.675781 300.824219 C 267.003906 300.214844 267.359375 299.617188 267.746094 299.039062 C 268.128906 298.460938 268.542969 297.90625 268.984375 297.367188 C 269.425781 296.832031 269.890625 296.316406 270.382812 295.824219 C 270.875 295.332031 271.386719 294.867188 271.925781 294.425781 C 272.460938 293.984375 273.019531 293.570312 273.597656 293.1875 C 274.175781 292.800781 274.769531 292.441406 275.382812 292.117188 C 275.996094 291.789062 276.621094 291.492188 277.265625 291.226562 C 277.90625 290.957031 278.558594 290.726562 279.226562 290.523438 C 279.890625 290.320312 280.5625 290.152344 281.242188 290.015625 C 281.925781 289.882812 282.613281 289.777344 283.304688 289.710938 C 283.996094 289.644531 284.6875 289.609375 285.382812 289.609375 C 286.078125 289.609375 286.769531 289.640625 287.460938 289.710938 C 288.152344 289.777344 288.839844 289.878906 289.519531 290.015625 C 290.203125 290.152344 290.875 290.320312 291.539062 290.519531 C 292.207031 290.722656 292.859375 290.957031 293.5 291.222656 C 294.144531 291.488281 294.769531 291.785156 295.382812 292.109375 C 295.996094 292.4375 296.589844 292.796875 297.167969 293.179688 C 297.746094 293.566406 298.304688 293.980469 298.839844 294.421875 C 299.378906 294.863281 299.894531 295.328125 300.382812 295.820312 C 300.875 296.308594 301.34375 296.824219 301.785156 297.359375 C 302.222656 297.898438 302.636719 298.457031 303.023438 299.03125 C 303.410156 299.609375 303.769531 300.207031 304.09375 300.816406 C 304.421875 301.429688 304.71875 302.058594 304.988281 302.699219 C 305.253906 303.34375 305.488281 303.996094 305.6875 304.660156 C 305.890625 305.324219 306.058594 306 306.195312 306.679688 C 306.332031 307.363281 306.433594 308.046875 306.503906 308.738281 C 306.570312 309.429688 306.605469 310.125 306.605469 310.820312 C 306.605469 311.515625 306.574219 312.210938 306.503906 312.902344 C 306.4375 313.59375 306.335938 314.28125 306.199219 314.964844 C 306.066406 315.648438 305.894531 316.320312 305.695312 316.988281 C 305.492188 317.652344 305.257812 318.308594 304.992188 318.949219 C 304.726562 319.59375 304.429688 320.222656 304.101562 320.835938 C 303.777344 321.449219 303.417969 322.046875 303.03125 322.625 C 302.644531 323.203125 302.230469 323.761719 301.792969 324.300781 C 301.351562 324.839844 300.882812 325.351562 300.390625 325.84375 C 299.898438 326.335938 299.386719 326.804688 298.847656 327.246094 C 298.308594 327.6875 297.753906 328.101562 297.175781 328.488281 C 296.59375 328.875 296 329.234375 295.386719 329.5625 C 294.773438 329.890625 294.144531 330.1875 293.503906 330.453125 C 292.859375 330.71875 292.207031 330.953125 291.539062 331.15625 C 290.875 331.355469 290.199219 331.527344 289.515625 331.660156 C 288.835938 331.796875 288.148438 331.898438 287.457031 331.96875 C 286.761719 332.035156 286.070312 332.070312 285.375 332.070312 Z M 285.375 332.058594 " fill-opacity="1" fill-rule="evenodd"/></svg>